<svg width="136" height="24" viewBox="0 0 136 24" fill="none" xmlns="http://www.w3.org/2000/svg">
<path d="M14.2305 10.9425C14.793 11.7075 15.0855 12.6525 15.0855 13.7325C15.0855 14.6775 14.838 15.51 14.3655 16.2525C13.8705 17.0175 13.218 17.6025 12.363 18.0075C11.508 18.435 10.5405 18.6375 9.46055 18.6375H0.685547V0.862488H8.87555C10.563 0.862488 11.8905 1.28999 12.8805 2.14499C13.848 2.99999 14.343 4.12499 14.343 5.54249C14.343 6.48749 14.118 7.31999 13.668 7.99499C13.218 8.66999 12.588 9.16499 11.8005 9.43499C12.8355 9.65999 13.6455 10.1775 14.2305 10.9425ZM4.19555 8.17499H7.72805C8.76305 8.17499 9.52805 8.03999 10.023 7.72499C10.518 7.40999 10.7655 6.93749 10.7655 6.28499C10.7655 5.60999 10.4955 5.09249 9.97805 4.75499C9.46055 4.43999 8.67305 4.25999 7.61555 4.25999H4.19555V8.17499ZM10.6755 14.7225C11.193 14.385 11.463 13.8675 11.463 13.1475C11.463 12.495 11.193 12 10.698 11.685C10.203 11.37 9.41555 11.2125 8.35805 11.2125H4.19555V15.24H8.26805C9.34805 15.24 10.1355 15.0825 10.6755 14.7225Z" fill="#0A0D12"/>
<path d="M16.9376 4.91244C16.5326 4.50744 16.3301 4.01244 16.3301 3.38244C16.3301 2.79744 16.5326 2.30244 16.9376 1.89744C17.3426 1.51494 17.8376 1.31244 18.4676 1.31244C19.0751 1.31244 19.5701 1.51494 19.9751 1.89744C20.3801 2.30244 20.5826 2.79744 20.5826 3.38244C20.5826 3.98994 20.3801 4.48494 19.9751 4.88994C19.5701 5.29494 19.0751 5.49744 18.4676 5.49744C17.8376 5.49744 17.3426 5.31744 16.9376 4.91244ZM16.7801 6.93744H20.1326V18.6374H16.7801V6.93744Z" fill="#0A0D12"/>
<path d="M24.5042 18.21C23.5592 17.67 22.8167 16.9275 22.2992 15.9825C21.7592 15.0375 21.5117 13.98 21.5117 12.765C21.5117 11.5725 21.7592 10.515 22.2992 9.56995C22.8167 8.62495 23.5592 7.90495 24.5042 7.36495C25.4492 6.84745 26.5292 6.57745 27.7442 6.57745C28.9592 6.57745 30.0392 6.84745 30.9842 7.36495C31.9292 7.90495 32.6492 8.62495 33.1892 9.56995C33.7292 10.515 33.9992 11.5725 33.9992 12.765C33.9992 13.98 33.7292 15.0375 33.1892 15.9825C32.6492 16.9275 31.9067 17.67 30.9617 18.21C30.0167 18.75 28.9367 18.9975 27.7442 18.9975C26.5292 18.9975 25.4492 18.75 24.5042 18.21ZM29.8367 15.1725C30.3767 14.5425 30.6467 13.755 30.6467 12.765C30.6467 11.7975 30.3767 11.01 29.8367 10.38C29.2967 9.77245 28.5992 9.45745 27.7442 9.45745C26.8892 9.45745 26.2142 9.77245 25.6742 10.38C25.1342 11.01 24.8642 11.7975 24.8642 12.765C24.8642 13.755 25.1342 14.5425 25.6742 15.1725C26.2142 15.8025 26.8892 16.1175 27.7442 16.1175C28.5992 16.1175 29.2967 15.8025 29.8367 15.1725Z" fill="#0A0D12"/>
<path d="M36.5076 17.9175C35.4951 17.1975 34.9776 16.185 34.9551 14.9025H38.2626C38.2626 15.465 38.5101 15.8925 38.9601 16.2075C39.4101 16.5225 39.9951 16.68 40.7151 16.68C41.3226 16.68 41.8176 16.5675 42.1776 16.2975C42.5378 16.0275 42.7403 15.7125 42.7403 15.3525C42.7403 14.925 42.5153 14.6325 42.0651 14.4525C41.6151 14.295 40.9401 14.1375 39.9951 14.0025C39.0051 13.8675 38.1951 13.71 37.5651 13.53C36.9351 13.35 36.3726 13.0125 35.9226 12.5175C35.4726 12.0225 35.2476 11.325 35.2476 10.425C35.2476 9.25501 35.7201 8.31001 36.7101 7.61251C37.7001 6.93751 39.0501 6.57751 40.7601 6.57751C42.3126 6.57751 43.5503 6.96001 44.4953 7.70251C45.4403 8.44501 45.9578 9.45751 46.0703 10.74H42.7853C42.7403 10.1775 42.5378 9.72751 42.1551 9.39001C41.7501 9.07501 41.2326 8.89501 40.5576 8.89501C39.9276 8.89501 39.4551 9.03001 39.1176 9.27751C38.7576 9.54751 38.6001 9.88501 38.6001 10.29C38.6001 10.695 38.8026 10.9875 39.2301 11.145C39.6576 11.325 40.3326 11.46 41.2326 11.55C42.2226 11.685 43.0553 11.865 43.7078 12.045C44.3378 12.225 44.9003 12.585 45.3728 13.08C45.8228 13.575 46.0703 14.295 46.0703 15.24C46.0703 16.41 45.5753 17.31 44.6078 17.985C43.6403 18.66 42.3126 18.9975 40.6251 18.9975C38.8701 18.9975 37.4976 18.6375 36.5076 17.9175Z" fill="#0A0D12"/>
<path d="M46.9649 20.19H48.1124C48.8324 20.2125 49.4174 20.1225 49.8674 19.92C50.2949 19.7175 50.6999 19.3575 51.0824 18.8175L45.7949 6.9375H49.3049L52.8149 14.745L55.7399 6.9375H59.2274L54.4574 19.4925C53.8724 20.865 53.1074 21.81 52.1399 22.35C51.1724 22.89 49.9349 23.1375 48.4049 23.1375H46.9649V20.19Z" fill="#0A0D12"/>
<path d="M59.7871 6.93745H63.1171V8.62495C63.5221 7.99495 64.0396 7.47745 64.7146 7.11745C65.3896 6.75745 66.1771 6.57745 67.0771 6.57745C69.9571 6.57745 71.4196 8.39995 71.4196 12.0225V18.6375H68.0446V12.2025C68.0446 11.3475 67.8421 10.695 67.4371 10.2C67.0321 9.70495 66.4696 9.45745 65.7496 9.45745C64.9396 9.45745 64.2871 9.74995 63.8146 10.335C63.3421 10.92 63.1171 11.685 63.1171 12.6525V18.6375H59.7871V6.93745Z" fill="#0A0D12"/>
<path d="M78.0525 18.7275C77.1525 18.7275 76.455 18.6375 75.96 18.4575C75.4425 18.2775 75.06 17.9625 74.835 17.49C74.5875 17.0175 74.475 16.3425 74.4975 15.4875V9.97504H72L72.2108 6.93754H74.4975V3.78754H77.8275V6.93754H80.8875L80.6775 9.97504H77.8275V13.7775C77.8275 14.3625 77.85 14.7675 77.895 15.015C77.94 15.285 78.075 15.465 78.255 15.5775C78.435 15.69 78.7275 15.735 79.155 15.735C79.47 15.735 80.3683 15.7125 80.8858 15.6675L80.6775 18.615C79.665 18.705 78.615 18.7275 78.0525 18.7275Z" fill="#0A0D12"/>
<path d="M82.1465 0.862488H85.4765V8.60249C85.8815 7.97249 86.399 7.47749 87.074 7.11749C87.749 6.75749 88.5365 6.57749 89.4365 6.57749C92.3165 6.57749 93.779 8.39999 93.779 12V18.6375H90.404V12.1575C90.404 11.3025 90.2015 10.65 89.7965 10.1775C89.3915 9.70499 88.829 9.45749 88.109 9.45749C87.299 9.45749 86.6465 9.74999 86.174 10.3125C85.7015 10.8975 85.4765 11.6625 85.4765 12.6075V18.6375H82.1465V0.862488Z" fill="#0A0D12"/>
<path d="M97.9768 18.21C97.0318 17.67 96.3118 16.9275 95.7943 15.9825C95.2768 15.0375 95.0293 13.98 95.0293 12.765C95.0293 11.5725 95.2768 10.515 95.7943 9.56995C96.3118 8.62495 97.0318 7.90495 97.9768 7.36495C98.8993 6.84745 99.9568 6.57745 101.149 6.57745C102.184 6.57745 103.107 6.84745 103.939 7.34245C104.772 7.83745 105.424 8.55745 105.919 9.47995C106.392 10.425 106.639 11.4825 106.639 12.6975V13.7775H98.4268C98.4943 14.565 98.7643 15.1725 99.2143 15.6225C99.6643 16.0725 100.317 16.275 101.172 16.275C101.734 16.275 102.207 16.14 102.567 15.87C102.927 15.6 103.152 15.2625 103.242 14.835H106.572C106.392 16.095 105.784 17.1075 104.794 17.8725C103.804 18.6375 102.589 18.9975 101.149 18.9975C99.9568 18.9975 98.8993 18.75 97.9768 18.21ZM103.287 11.73C103.242 11.055 103.039 10.515 102.634 10.0875C102.229 9.68245 101.689 9.45745 101.014 9.45745C100.249 9.45745 99.6643 9.65995 99.2368 10.065C98.8093 10.47 98.5393 11.0325 98.4493 11.73H103.287Z" fill="#0A0D12"/>
<path d="M109.144 17.9175C108.132 17.1975 107.614 16.185 107.592 14.9025H110.899C110.899 15.465 111.147 15.8925 111.597 16.2075C112.047 16.5225 112.632 16.68 113.352 16.68C113.959 16.68 114.454 16.5675 114.814 16.2975C115.174 16.0275 115.377 15.7125 115.377 15.3525C115.377 14.925 115.152 14.6325 114.702 14.4525C114.252 14.295 113.577 14.1375 112.632 14.0025C111.642 13.8675 110.832 13.71 110.202 13.53C109.572 13.35 109.009 13.0125 108.559 12.5175C108.109 12.0225 107.884 11.325 107.884 10.425C107.884 9.25495 108.357 8.30995 109.347 7.61245C110.337 6.93745 111.687 6.57745 113.397 6.57745C114.949 6.57745 116.187 6.95995 117.132 7.70245C118.077 8.44495 118.594 9.45745 118.707 10.74H115.422C115.377 10.1775 115.174 9.72745 114.792 9.38995C114.387 9.07495 113.869 8.89495 113.194 8.89495C112.564 8.89495 112.092 9.02995 111.754 9.27745C111.394 9.54745 111.237 9.88495 111.237 10.29C111.237 10.695 111.439 10.9875 111.867 11.145C112.294 11.325 112.969 11.46 113.869 11.55C114.859 11.685 115.692 11.865 116.344 12.045C116.974 12.225 117.537 12.585 118.009 13.08C118.459 13.575 118.707 14.295 118.707 15.24C118.707 16.41 118.212 17.31 117.244 17.985C116.277 18.66 114.949 18.9975 113.262 18.9975C111.507 18.9975 110.134 18.6375 109.144 17.9175Z" fill="#0A0D12"/>
<path d="M120.236 4.9125C119.831 4.5075 119.629 4.0125 119.629 3.3825C119.629 2.7975 119.831 2.3025 120.236 1.8975C120.641 1.515 121.136 1.3125 121.766 1.3125C122.374 1.3125 122.869 1.515 123.274 1.8975C123.679 2.3025 123.881 2.7975 123.881 3.3825C123.881 3.99 123.679 4.485 123.274 4.89C122.869 5.295 122.374 5.4975 121.766 5.4975C121.136 5.4975 120.641 5.3175 120.236 4.9125ZM120.079 6.9375H123.431V18.6375H120.079V6.9375Z" fill="#0A0D12"/>
<path d="M134.373 17.9175C135.386 17.1975 135.903 16.185 135.926 14.9025H132.618C132.618 15.465 132.371 15.8925 131.921 16.2075C131.471 16.5225 130.886 16.68 130.166 16.68C129.558 16.68 129.063 16.5675 128.703 16.2975C128.343 16.0275 128.141 15.7125 128.141 15.3525C128.141 14.925 128.366 14.6325 128.816 14.4525C129.266 14.295 129.941 14.1375 130.886 14.0025C131.876 13.8675 132.686 13.71 133.316 13.53C133.946 13.35 134.508 13.0125 134.958 12.5175C135.408 12.0225 135.633 11.325 135.633 10.425C135.633 9.25501 135.161 8.31001 134.171 7.61251C133.181 6.93751 131.831 6.57751 130.121 6.57751C128.568 6.57751 127.331 6.96001 126.386 7.70251C125.441 8.44501 124.923 9.45751 124.811 10.74H128.096C128.141 10.1775 128.343 9.72751 128.726 9.39001C129.131 9.07501 129.648 8.89501 130.323 8.89501C130.953 8.89501 131.426 9.03001 131.763 9.27751C132.123 9.54751 132.281 9.88501 132.281 10.29C132.281 10.695 132.078 10.9875 131.651 11.145C131.223 11.325 130.548 11.46 129.648 11.55C128.658 11.685 127.826 11.865 127.173 12.045C126.543 12.225 125.981 12.585 125.508 13.08C125.058 13.575 124.811 14.295 124.811 15.24C124.811 16.41 125.306 17.31 126.273 17.985C127.241 18.66 128.568 18.9975 130.256 18.9975C132.011 18.9975 133.383 18.6375 134.373 17.9175Z" fill="#0A0D12"/>
</svg>
