<svg width="37" height="28" viewBox="0 0 37 28" fill="none" xmlns="http://www.w3.org/2000/svg">
<path d="M36.4855 12.3731L24.6902 0.836537C24.3725 0.536446 23.9496 0.373135 23.5127 0.38178C23.0758 0.390425 22.6597 0.570333 22.3542 0.882756C22.0486 1.19518 21.878 1.61512 21.879 2.05213C21.8801 2.48914 22.0527 2.90825 22.3598 3.2192L31.2788 11.9425L1.97056 12.2676C1.52856 12.2725 1.10661 12.4528 0.797539 12.7688C0.488465 13.0848 0.317583 13.5107 0.322487 13.9527C0.32739 14.3947 0.507677 14.8166 0.823686 15.1257C1.13969 15.4348 1.56554 15.6056 2.00754 15.6007L31.3157 15.2756L22.5925 24.1946C22.435 24.3501 22.3101 24.5354 22.225 24.7397C22.1399 24.944 22.0964 25.1632 22.0969 25.3845C22.0974 25.6058 22.142 25.8248 22.2281 26.0287C22.3142 26.2325 22.44 26.4172 22.5982 26.572C22.7564 26.7267 22.9438 26.8484 23.1496 26.9299C23.3553 27.0115 23.5753 27.0512 23.7965 27.0468C24.0178 27.0424 24.236 26.994 24.4383 26.9044C24.6407 26.8148 24.8232 26.6858 24.9751 26.525L36.5117 14.7296C36.8206 14.4136 36.9914 13.9878 36.9865 13.5459C36.9816 13.104 36.8014 12.6821 36.4855 12.3731Z" fill="white"/>
</svg>
